<svg width="207" height="151" viewBox="0 0 207 151" fill="none" xmlns="http://www.w3.org/2000/svg">
<g clip-path="url(#clip0_539_2668)">
<path fill-rule="evenodd" clip-rule="evenodd" d="M16.454 150.145H11.2578V125.166H26.3613L26.1309 127.683L16.454 127.822V136.683L25.8115 136.794L25.573 139.098L16.454 139.283V150.145ZM36.7496 140.648H35.1287V150.145H30.3347V127.14C31.3088 127.071 32.4043 127.021 33.629 126.968C34.8437 126.918 36.0139 126.892 37.1356 126.892C39.9893 126.892 42.162 127.403 43.6434 128.418C45.1249 129.435 45.8706 131.022 45.8706 133.189C45.8706 134.16 45.7433 134.997 45.4927 135.714C45.2441 136.431 44.9025 137.054 44.4903 137.591C44.0759 138.121 43.605 138.572 43.0634 138.938C42.5197 139.305 41.9599 139.613 41.3596 139.859C42.069 141.047 42.7299 142.165 43.3746 143.214C44.0092 144.263 44.654 145.177 45.2906 145.961C45.9252 146.746 46.58 147.37 47.2328 147.821C47.8857 148.28 48.595 148.512 49.3489 148.512H49.5146V149.988C49.1286 150.107 48.6961 150.202 48.1969 150.278C47.7098 150.357 47.1581 150.389 46.5416 150.389C45.6564 150.389 44.8924 150.312 44.2396 150.167C43.5767 150.012 42.9421 149.688 42.3156 149.187C41.6992 148.691 41.0544 147.956 40.3915 146.994C39.7185 146.029 38.9465 144.716 38.0713 143.069L36.7496 140.648ZM67.5688 150.145H53.3668V127.097H67.0899L66.8433 129.445L58.1628 129.546V137.047L66.338 137.148L66.1157 139.273L58.1628 139.444V147.688L67.7912 147.868L67.5688 150.145ZM87.3713 143.397C87.3713 144.233 87.1591 145.068 86.7266 145.904C86.2941 146.75 85.6675 147.509 84.8571 148.182C84.0567 148.856 83.0826 149.412 81.9306 149.831C80.7887 150.258 79.5093 150.469 78.0926 150.469C77.3367 150.469 76.6394 150.427 75.9846 150.343C75.3399 150.266 74.7335 150.145 74.1616 150.008C73.5997 149.863 73.0581 149.692 72.5326 149.479C72.0071 149.275 71.4938 149.044 70.9683 148.798L72.1546 145.366C72.4962 145.588 72.9469 145.82 73.5169 146.065C74.0868 146.321 74.6951 146.553 75.3661 146.764C76.029 146.986 76.7 147.165 77.3731 147.302C78.0461 147.447 78.6625 147.515 79.2223 147.515C79.8468 147.515 80.3642 147.481 80.7684 147.404C81.1727 147.328 81.5405 147.225 81.8639 147.088C82.2216 146.961 82.5086 146.627 82.7289 146.089C82.9411 145.56 83.0523 144.871 83.0523 144.017C83.0523 143.232 82.7774 142.61 82.2155 142.14C81.6618 141.681 80.9645 141.27 80.1237 140.928C79.287 140.588 78.3856 140.245 77.4175 139.903C76.4434 139.563 75.5399 139.118 74.7012 138.58C73.8645 138.042 73.1652 137.344 72.6114 136.49C72.0496 135.644 71.7747 134.526 71.7747 133.145C71.7747 132.48 71.9687 131.771 72.3446 131.036C72.7226 130.295 73.2662 129.612 73.9817 128.98C74.6992 128.358 75.5925 127.846 76.6515 127.446C77.7187 127.043 78.9252 126.848 80.2692 126.848C81.3445 126.848 82.3853 126.898 83.3797 127.001C84.3821 127.095 85.3502 127.232 86.2779 127.395L85.522 130.825C85.0895 130.67 84.6024 130.535 84.0588 130.398C83.507 130.261 82.9532 130.15 82.3833 130.047C81.8133 129.945 81.2616 129.868 80.728 129.808C80.1844 129.749 79.7074 129.723 79.3012 129.723C78.8323 129.723 78.3997 129.741 78.0036 129.784C77.6075 129.826 77.2498 129.939 76.9264 130.124C76.6232 130.287 76.4009 130.577 76.2635 130.986C76.124 131.397 76.0594 131.882 76.0594 132.444C76.0594 133.034 76.2251 133.511 76.5464 133.894C76.8698 134.278 77.2922 134.619 77.8258 134.911C78.3593 135.201 78.9576 135.465 79.6306 135.704C80.3117 135.952 81.0009 136.208 81.7103 136.48C82.4176 136.753 83.1088 137.078 83.7899 137.436C84.4609 137.795 85.0592 138.23 85.5927 138.759C86.1263 139.279 86.5507 139.919 86.8721 140.67C87.2056 141.425 87.3713 142.33 87.3713 143.397ZM108.166 150.145V139.768H97.4787V150.145H92.6826V127.097H97.4787V137.19H108.166V127.097H112.99V150.145H108.166ZM38.0855 137.301C34.9953 137.301 32.4245 135.811 32.0041 133.884H44.1628C43.7445 135.811 41.1737 137.301 38.0855 137.301ZM32.0041 132.776C32.4224 130.849 34.9932 129.359 38.0855 129.359C41.1737 129.359 43.7445 130.849 44.1628 132.776H32.0041Z" fill="white"/>
<path fill-rule="evenodd" clip-rule="evenodd" d="M195.5 150.144H182.264V127.176H194.964L194.726 128.838L185.625 128.944V137.088L194.19 137.179L193.95 138.635L185.625 138.812V148.373L195.742 148.551L195.5 150.144ZM166.508 150.144H163.146V127.176H176.087L175.873 128.813L166.508 128.928V138.208L175.56 138.298L175.319 139.762L166.508 139.94V150.144ZM152.182 150.144V127.176H155.543V150.144H152.182ZM132.82 150.144V125.251H136.464V148.245H146.667L146.408 150.142H132.82V150.144Z" fill="white"/>
<path fill-rule="evenodd" clip-rule="evenodd" d="M167.068 93.0515H165.671V94.7633H167.027C167.389 94.7633 167.696 94.7351 167.945 94.6847C168.191 94.6344 168.381 94.5418 168.511 94.4169C168.642 94.29 168.709 94.1189 168.709 93.8973C168.709 93.7262 168.656 93.5731 168.549 93.4422C168.446 93.3113 168.3 93.2127 168.11 93.1462C167.935 93.0838 167.585 93.0515 167.068 93.0515ZM164.173 97.8646C164.161 97.8021 164.155 97.7337 164.155 97.6612V92.8784C164.155 92.6085 164.23 92.4112 164.375 92.2883C164.521 92.1675 164.757 92.1071 165.083 92.1071H167.544C167.884 92.1071 168.173 92.1192 168.414 92.1433C168.654 92.1675 168.872 92.2158 169.064 92.2883C169.299 92.3709 169.507 92.4877 169.687 92.6407C169.869 92.7938 170.006 92.969 170.097 93.1724C170.19 93.3738 170.237 93.5872 170.237 93.8148C170.237 94.278 170.081 94.6485 169.766 94.9244C169.45 95.2023 168.973 95.3976 168.335 95.5124C168.604 95.6312 168.858 95.8085 169.105 96.0421C169.347 96.2716 169.568 96.5173 169.76 96.7791C169.952 97.0429 170.101 97.2765 170.208 97.488C170.216 97.5021 170.22 97.5141 170.226 97.5282C170.79 96.8778 171.128 96.0521 171.128 95.158C171.128 93.0656 169.289 91.36 167.033 91.36C164.778 91.36 162.938 93.0656 162.938 95.158C162.945 96.2132 163.415 97.1738 164.173 97.8646ZM166.2 95.6635H165.671V97.6591C165.671 97.9209 165.6 98.1143 165.463 98.2391C165.333 98.3559 165.168 98.4163 164.964 98.4244C165.574 98.7587 166.283 98.952 167.039 98.952C167.854 98.952 168.614 98.7285 169.254 98.3479C169.24 98.3398 169.228 98.3338 169.216 98.3257C169.101 98.2593 169.002 98.1747 168.919 98.074C168.834 97.9733 168.723 97.8223 168.579 97.6229L167.971 96.7851C167.753 96.477 167.559 96.2414 167.389 96.0803C167.217 95.9212 167.043 95.8105 166.865 95.7521C166.692 95.6937 166.467 95.6635 166.2 95.6635ZM167.039 90.4658C169.826 90.4658 172.1 92.5743 172.1 95.158C172.1 97.7417 169.826 99.8482 167.039 99.8482C164.252 99.8482 161.98 97.7417 161.98 95.158C161.98 92.5723 164.252 90.4658 167.039 90.4658Z" fill="white"/>
<path fill-rule="evenodd" clip-rule="evenodd" d="M67.2875 86.2874C69.8078 75.9989 85.2507 68.0363 103.828 68.0363C122.404 68.0363 137.845 75.9989 140.367 86.2874H67.2875ZM103.828 112.159C85.2507 112.159 69.8078 104.198 67.2895 93.9076H140.365C137.849 104.198 122.406 112.159 103.828 112.159ZM103.828 44.1264C85.2507 44.1264 69.8078 36.1639 67.2895 25.8733H140.365C137.849 36.1659 122.406 44.1264 103.828 44.1264ZM67.2875 18.2511C69.8078 7.96056 85.2528 0 103.828 0C122.404 0 137.847 7.96056 140.367 18.2511H67.2875ZM0 52.2703C2.51825 41.9817 17.9633 34.0172 36.5409 34.0172C55.1166 34.0172 70.5596 41.9797 73.0778 52.2703H0ZM36.5409 78.1416C17.9633 78.1416 2.52027 70.183 0.00202107 59.8905H73.0799C70.5596 70.183 55.1186 78.1416 36.5409 78.1416ZM133.922 52.2703C136.44 41.9797 151.885 34.0172 170.461 34.0172C189.039 34.0172 204.48 41.9797 207 52.2703H133.922ZM170.461 78.1416C151.883 78.1416 136.442 70.183 133.924 59.8905H207C204.484 70.183 189.039 78.1416 170.461 78.1416Z" fill="white"/>
</g>
<defs>
<clipPath id="clip0_539_2668">
<rect width="207" height="150.469" fill="white"/>
</clipPath>
</defs>
</svg>
