<svg width="425" height="88" viewBox="0 0 425 88" fill="none" xmlns="http://www.w3.org/2000/svg">
<path fill-rule="evenodd" clip-rule="evenodd" d="M130.747 72.9724H129.654V74.3148H130.715C130.998 74.3148 131.239 74.2927 131.433 74.2532C131.626 74.2137 131.775 74.1411 131.876 74.0432C131.979 73.9437 132.031 73.8094 132.031 73.6357C132.031 73.5015 131.99 73.3815 131.906 73.2788C131.826 73.1762 131.712 73.0988 131.563 73.0467C131.425 72.9977 131.152 72.9724 130.747 72.9724ZM128.482 76.7468C128.472 76.6979 128.468 76.6442 128.468 76.5873V72.8366C128.468 72.625 128.526 72.4702 128.64 72.3739C128.754 72.2791 128.939 72.2318 129.194 72.2318H131.12C131.386 72.2318 131.612 72.2412 131.8 72.2602C131.988 72.2791 132.159 72.317 132.31 72.3739C132.493 72.4386 132.656 72.5302 132.797 72.6503C132.939 72.7703 133.047 72.9077 133.118 73.0672C133.191 73.2251 133.227 73.3925 133.227 73.571C133.227 73.9342 133.105 74.2248 132.858 74.4411C132.612 74.6591 132.238 74.8123 131.739 74.9023C131.949 74.9954 132.148 75.1344 132.341 75.3176C132.531 75.4977 132.703 75.6903 132.854 75.8956C133.004 76.1025 133.121 76.2857 133.205 76.4515C133.211 76.4626 133.214 76.472 133.219 76.4831C133.66 75.973 133.924 75.3255 133.924 74.6243C133.924 72.9835 132.485 71.6459 130.72 71.6459C128.955 71.6459 127.515 72.9835 127.515 74.6243C127.52 75.4518 127.889 76.2052 128.482 76.7468ZM130.068 75.0207H129.654V76.5858C129.654 76.7911 129.598 76.9427 129.491 77.0406C129.39 77.1322 129.26 77.1795 129.1 77.1859C129.578 77.448 130.133 77.5996 130.725 77.5996C131.362 77.5996 131.957 77.4243 132.458 77.1259C132.447 77.1195 132.438 77.1148 132.428 77.1085C132.338 77.0564 132.26 76.99 132.196 76.9111C132.129 76.8321 132.042 76.7137 131.93 76.5573L131.454 75.9004C131.283 75.6587 131.131 75.474 130.998 75.3476C130.864 75.2229 130.728 75.136 130.589 75.0902C130.453 75.0444 130.277 75.0207 130.068 75.0207ZM130.725 70.9447C132.906 70.9447 134.685 72.5981 134.685 74.6243C134.685 76.6505 132.906 78.3024 130.725 78.3024C128.543 78.3024 126.766 76.6505 126.766 74.6243C126.766 72.5966 128.543 70.9447 130.725 70.9447Z" fill="#009944"/>
<path fill-rule="evenodd" clip-rule="evenodd" d="M52.6598 67.6677C54.6322 59.5993 66.718 53.355 81.257 53.355C95.7945 53.355 107.879 59.5993 109.853 67.6677H52.6598ZM81.257 87.9563C66.718 87.9563 54.6322 81.7136 52.6614 73.6436H109.851C107.882 81.7136 95.7961 87.9563 81.257 87.9563ZM81.257 34.6045C66.718 34.6045 54.6322 28.3602 52.6614 20.2902H109.851C107.882 28.3618 95.7961 34.6045 81.257 34.6045ZM52.6598 14.3127C54.6322 6.24278 66.7196 0 81.257 0C95.7945 0 107.88 6.24278 109.853 14.3127H52.6598ZM0 40.991C1.97081 32.9226 14.0582 26.6767 28.5973 26.6767C43.1347 26.6767 55.2206 32.9211 57.1914 40.991H0ZM28.5973 61.2796C14.0582 61.2796 1.97239 55.0384 0.00158171 46.9669H57.1929C55.2206 55.0384 43.1363 61.2796 28.5973 61.2796ZM104.809 40.991C106.779 32.9211 118.867 26.6767 133.404 26.6767C147.943 26.6767 160.028 32.9211 162 40.991H104.809ZM133.404 61.2796C118.865 61.2796 106.781 55.0384 104.81 46.9669H162C160.031 55.0384 147.943 61.2796 133.404 61.2796Z" fill="url(#paint0_linear_539_4202)"/>
<path fill-rule="evenodd" clip-rule="evenodd" d="M184.947 60.4937H178V27.0283H198.193L197.885 30.4007L184.947 30.5869V42.4579L197.458 42.6063L197.139 45.6927L184.947 45.9409V60.4937ZM212.082 47.7701H209.915V60.4937H203.506V29.6723C204.808 29.5805 206.273 29.5131 207.91 29.4429C209.534 29.3755 211.099 29.3404 212.598 29.3404C216.414 29.3404 219.319 30.0257 221.299 31.3855C223.28 32.7479 224.277 34.8739 224.277 37.7769C224.277 39.0773 224.107 40.1997 223.772 41.1602C223.439 42.1206 222.983 42.9543 222.431 43.6746C221.878 44.3842 221.248 44.9886 220.524 45.4796C219.797 45.9706 219.048 46.3834 218.246 46.7125C219.194 48.3043 220.078 49.8017 220.94 51.2073C221.788 52.613 222.65 53.8378 223.502 54.8874C224.35 55.9396 225.226 56.7759 226.098 57.3803C226.971 57.9954 227.92 58.3057 228.927 58.3057H229.149V60.2833C228.633 60.4424 228.055 60.5692 227.387 60.6718C226.736 60.777 225.998 60.8202 225.174 60.8202C223.991 60.8202 222.969 60.7176 222.096 60.5234C221.21 60.3156 220.362 59.8813 219.524 59.2095C218.7 58.5458 217.838 57.561 216.952 56.2714C216.052 54.9791 215.019 53.22 213.849 51.0131L212.082 47.7701ZM253.287 60.4937H234.299V29.6156H252.647L252.317 32.7614L240.712 32.8963V42.9462L251.642 43.0811L251.345 45.9275L240.712 46.1568V57.2022L253.585 57.4423L253.287 60.4937ZM279.763 51.4529C279.763 52.5725 279.479 53.6922 278.901 54.8118C278.323 55.945 277.485 56.9621 276.402 57.8632C275.332 58.767 274.029 59.5117 272.489 60.0728C270.962 60.6448 269.252 60.9281 267.357 60.9281C266.347 60.9281 265.415 60.8714 264.539 60.7581C263.677 60.6556 262.867 60.4937 262.102 60.3103C261.351 60.116 260.626 59.8867 259.924 59.6007C259.221 59.3282 258.535 59.0179 257.832 58.6888L259.419 54.0915C259.875 54.3882 260.478 54.6985 261.24 55.0277C262.002 55.3703 262.815 55.6805 263.712 55.9638C264.599 56.2606 265.496 56.5007 266.396 56.6842C267.295 56.8785 268.119 56.9702 268.868 56.9702C269.703 56.9702 270.395 56.9243 270.935 56.8218C271.476 56.7193 271.967 56.5817 272.4 56.3982C272.878 56.2282 273.262 55.7804 273.556 55.06C273.84 54.3505 273.989 53.4278 273.989 52.2838C273.989 51.2316 273.621 50.398 272.87 49.7693C272.129 49.1542 271.197 48.6038 270.073 48.1452C268.954 47.6892 267.749 47.2305 266.455 46.7719C265.153 46.3159 263.945 45.7197 262.823 44.9994C261.705 44.279 260.77 43.3428 260.029 42.1989C259.278 41.0657 258.911 39.5684 258.911 37.7176C258.911 36.8272 259.17 35.8776 259.673 34.8928C260.178 33.9 260.905 32.9853 261.861 32.1382C262.821 31.3045 264.015 30.6192 265.431 30.0823C266.858 29.5428 268.471 29.2811 270.268 29.2811C271.705 29.2811 273.097 29.3485 274.426 29.4861C275.767 29.6129 277.061 29.7964 278.301 30.0149L277.291 34.6095C276.712 34.4018 276.061 34.221 275.334 34.0376C274.597 33.8541 273.856 33.7057 273.094 33.5681C272.332 33.4305 271.594 33.328 270.881 33.2471C270.154 33.1688 269.516 33.1337 268.973 33.1337C268.346 33.1337 267.768 33.158 267.239 33.2147C266.709 33.2713 266.231 33.4224 265.798 33.6706C265.393 33.8892 265.096 34.2777 264.912 34.8254C264.726 35.3757 264.639 36.0259 264.639 36.7787C264.639 37.5692 264.861 38.2086 265.29 38.7212C265.723 39.2365 266.287 39.6925 267.001 40.0837C267.714 40.4722 268.514 40.8256 269.414 41.1467C270.324 41.4785 271.246 41.8211 272.194 42.1854C273.14 42.5523 274.064 42.9867 274.975 43.4669C275.872 43.9471 276.672 44.5299 277.385 45.2395C278.099 45.9355 278.666 46.7935 279.096 47.7998C279.541 48.8116 279.763 50.0229 279.763 51.4529ZM307.565 60.4937V46.5911H293.277V60.4937H286.864V29.6156H293.277V43.1378H307.565V29.6156H314.016V60.4937H307.565ZM213.868 43.2861C209.737 43.2861 206.3 41.2897 205.738 38.7077H221.994C221.434 41.2897 217.997 43.2861 213.868 43.2861ZM205.738 37.2238C206.297 34.6419 209.734 32.6454 213.868 32.6454C217.997 32.6454 221.434 34.6419 221.994 37.2238H205.738Z" fill="#ABCD03"/>
<path fill-rule="evenodd" clip-rule="evenodd" d="M424.329 60.491H406.633V29.7208H423.613L423.294 31.9466L411.126 32.0896V43.0001L422.578 43.1216L422.257 45.0722L411.126 45.3096V58.1195L424.653 58.3569L424.329 60.491ZM385.567 60.491H381.073V29.7208H398.375L398.089 31.9143L385.567 32.068V44.5002L397.67 44.6216L397.348 46.583L385.567 46.8205V60.491ZM366.414 60.491V29.7208H370.908V60.491H366.414ZM340.527 60.491V27.1416H345.399V57.9468H359.04L358.694 60.4883H340.527V60.491Z" fill="#009944"/>
<defs>
<linearGradient id="paint0_linear_539_4202" x1="-7.63332e-06" y1="43.9784" x2="162" y2="43.9784" gradientUnits="userSpaceOnUse">
<stop stop-color="#2BADD7"/>
<stop offset="0.34" stop-color="#3EB370"/>
<stop offset="0.63" stop-color="#AACF52"/>
<stop offset="1" stop-color="#DAE24A"/>
</linearGradient>
</defs>
</svg>
