<svg width="22" height="22" viewBox="0 0 22 22" fill="none" xmlns="http://www.w3.org/2000/svg">
<path d="M20.9338 10.0243C21.1692 9.84055 21.3439 9.58415 21.4333 9.29109C21.5226 8.99804 21.5222 8.68302 21.4321 8.39021C21.342 8.09741 21.1667 7.8415 20.9307 7.65837C20.6948 7.47524 20.4101 7.37407 20.1165 7.36904L14.4147 7.14334C14.3867 7.14131 14.3598 7.13084 14.3373 7.11317C14.3149 7.0955 14.2977 7.0714 14.288 7.04377L12.3177 1.46763C12.2188 1.18393 12.039 0.938968 11.8027 0.765894C11.5664 0.59282 11.2851 0.5 10.9968 0.5C10.7086 0.5 10.4272 0.59282 10.191 0.765894C9.95471 0.938968 9.77491 1.18393 9.67592 1.46763L7.71197 7.06368C7.70226 7.09132 7.68513 7.11542 7.66265 7.13308C7.64017 7.15075 7.6133 7.16123 7.58526 7.16326L1.88347 7.38896C1.5899 7.39398 1.30519 7.49515 1.06925 7.67828C0.833324 7.86142 0.658007 8.11733 0.567887 8.41013C0.477767 8.70293 0.477363 9.01795 0.566731 9.31101C0.656099 9.60406 0.830758 9.86047 1.06622 10.0443L5.53895 13.7285C5.56134 13.747 5.57807 13.7719 5.58708 13.8002C5.59609 13.8285 5.59697 13.859 5.58964 13.8878L4.05015 19.6034C3.97038 19.8944 3.97811 20.2041 4.07229 20.4904C4.16647 20.7767 4.34253 21.0256 4.57652 21.2034C4.81051 21.3811 5.09107 21.479 5.38003 21.4837C5.669 21.4884 5.95233 21.3997 6.19149 21.2297L10.9176 17.9106C10.9409 17.8938 10.9685 17.8847 10.9968 17.8847C11.0251 17.8847 11.0527 17.8938 11.076 17.9106L15.8022 21.2297C16.0381 21.4055 16.3204 21.5 16.6099 21.5C16.8994 21.5 17.1818 21.4055 17.4177 21.2297C17.6517 21.0537 17.828 20.806 17.9221 20.5207C18.0163 20.2354 18.0238 19.9265 17.9435 19.6366L16.3914 13.9011C16.3831 13.8723 16.3836 13.8415 16.3927 13.813C16.4017 13.7845 16.419 13.7596 16.442 13.7418L20.9338 10.0243Z" fill="#FFBC0D"/>
</svg>
